solid Lid For ScrantonCups
facet normal 0.0 0.0 -1.0
  outer loop
    vertex 1.5392670026491184 10.705837159974395 0.0
    vertex 4.177872680088983 9.931072628660457 0.0
    vertex 2.7500000000000004 0.0 0.0
  endloop
endfacet
facet normal 0.0 0.0 -1.0
  outer loop
    vertex 4.177872680088983 9.931072628660457 0.0
    vertex 1.5392670026491184 10.705837159974395 0.0
    vertex 6.032365752415147 20.54435106331276 0.0
  endloop
endfacet
facet normal 0.0 0.0 -1.0
  outer loop
    vertex 4.177872680088983 9.931072628660457 0.0
    vertex 6.032365752415147 20.54435106331276 0.0
    vertex 8.345812967700892 19.057588815309863 0.0
  endloop
endfacet
facet normal 0.0 0.0 -1.0
  outer loop
    vertex 8.345812967700892 19.057588815309863 0.0
    vertex 6.032365752415147 20.54435106331276 0.0
    vertex 13.115292110079213 28.718483825461853 0.0
  endloop
endfacet
facet normal 0.0 0.0 -1.0
  outer loop
    vertex 8.345812967700892 19.057588815309863 0.0
    vertex 13.115292110079213 28.718483825461853 0.0
    vertex 14.916159128428744 26.640172495987635 0.0
  endloop
endfacet
facet normal 0.0 0.0 -1.0
  outer loop
    vertex 14.916159128428744 26.640172495987635 0.0
    vertex 13.115292110079213 28.718483825461853 0.0
    vertex 22.21422950592836 34.566015823471716 0.0
  endloop
endfacet
facet normal 0.0 0.0 -1.0
  outer loop
    vertex 14.916159128428744 26.640172495987635 0.0
    vertex 22.21422950592836 34.566015823471716 0.0
    vertex 23.356620791683547 32.06452783624679 0.0
  endloop
endfacet
facet normal 0.0 0.0 -1.0
  outer loop
    vertex 23.356620791683547 32.06452783624679 0.0
    vertex 22.21422950592836 34.566015823471716 0.0
    vertex 32.59203614561521 37.61321479147545 0.0
  endloop
endfacet
facet normal 0.0 0.0 -1.0
  outer loop
    vertex 23.356620791683547 32.06452783624679 0.0
    vertex 32.59203614561521 37.61321479147545 0.0
    vertex 32.983401950866735 34.89120582630288 0.0
  endloop
endfacet
facet normal 0.0 0.0 -1.0
  outer loop
    vertex 32.983401950866735 34.89120582630288 0.0
    vertex 32.59203614561521 37.61321479147545 0.0
    vertex 43.407963854384874 37.613214791475436 0.0
  endloop
endfacet
facet normal 0.0 0.0 -1.0
  outer loop
    vertex 32.983401950866735 34.89120582630288 0.0
    vertex 43.407963854384874 37.613214791475436 0.0
    vertex 43.01659804913333 34.89120582630287 0.0
  endloop
endfacet
facet normal 0.0 0.0 -1.0
  outer loop
    vertex 43.01659804913333 34.89120582630287 0.0
    vertex 43.407963854384874 37.613214791475436 0.0
    vertex 52.64337920831652 32.06452783624676 0.0
  endloop
endfacet
facet normal 0.0 0.0 -1.0
  outer loop
    vertex 52.64337920831652 32.06452783624676 0.0
    vertex 43.407963854384874 37.613214791475436 0.0
    vertex 53.785770494071706 34.56601582347168 0.0
  endloop
endfacet
facet normal 0.0 0.0 -1.0
  outer loop
    vertex 52.64337920831652 32.06452783624676 0.0
    vertex 53.785770494071706 34.56601582347168 0.0
    vertex 61.08384087157132 26.640172495987574 0.0
  endloop
endfacet
facet normal 0.0 0.0 -1.0
  outer loop
    vertex 61.08384087157132 26.640172495987574 0.0
    vertex 53.785770494071706 34.56601582347168 0.0
    vertex 62.88470788992087 28.718483825461785 0.0
  endloop
endfacet
facet normal 0.0 0.0 -1.0
  outer loop
    vertex 61.08384087157132 26.640172495987574 0.0
    vertex 62.88470788992087 28.718483825461785 0.0
    vertex 67.65418703229915 19.057588815309785 0.0
  endloop
endfacet
facet normal 0.0 0.0 -1.0
  outer loop
    vertex 67.65418703229915 19.057588815309785 0.0
    vertex 62.88470788992087 28.718483825461785 0.0
    vertex 69.9676342475849 20.54435106331268 0.0
  endloop
endfacet
facet normal 0.0 0.0 -1.0
  outer loop
    vertex 67.65418703229915 19.057588815309785 0.0
    vertex 69.9676342475849 20.54435106331268 0.0
    vertex 71.82212731991105 9.931072628660372 0.0
  endloop
endfacet
facet normal 0.0 0.0 -1.0
  outer loop
    vertex 71.82212731991105 9.931072628660372 0.0
    vertex 69.9676342475849 20.54435106331268 0.0
    vertex 74.46073299735092 10.705837159974301 0.0
  endloop
endfacet
facet normal 0.0 0.0 -1.0
  outer loop
    vertex 71.82212731991105 9.931072628660372 0.0
    vertex 74.46073299735092 10.705837159974301 0.0
    vertex 73.24999999999999 -1.9971024614209124e-14 0.0
  endloop
endfacet
facet normal 0.0 0.0 -1.0
  outer loop
    vertex 73.24999999999999 -1.9971024614209124e-14 0.0
    vertex 74.46073299735092 10.705837159974301 0.0
    vertex 74.46073299735089 -10.705837159974342 0.0
  endloop
endfacet
facet normal 0.0 0.0 -1.0
  outer loop
    vertex 74.46073299735089 -10.705837159974342 0.0
    vertex 74.46073299735092 10.705837159974301 0.0
    vertex 76.0 -2.152904781106232e-14 0.0
  endloop
endfacet
facet normal 0.0 0.0 -1.0
  outer loop
    vertex 1.5392670026491184 10.705837159974395 0.0
    vertex 1.5392670026491015 -10.705837159974328 0.0
    vertex 0.0 0.0 0.0
  endloop
endfacet
facet normal 0.0 0.0 -1.0
  outer loop
    vertex 1.5392670026491015 -10.705837159974328 0.0
    vertex 1.5392670026491184 10.705837159974395 0.0
    vertex 2.7500000000000004 0.0 0.0
  endloop
endfacet
facet normal 0.0 0.0 -1.0
  outer loop
    vertex 1.5392670026491015 -10.705837159974328 0.0
    vertex 2.7500000000000004 0.0 0.0
    vertex 4.177872680088966 -9.931072628660395 0.0
  endloop
endfacet
facet normal 0.0 0.0 -1.0
  outer loop
    vertex 1.5392670026491015 -10.705837159974328 0.0
    vertex 4.177872680088966 -9.931072628660395 0.0
    vertex 6.032365752415113 -20.544351063312707 0.0
  endloop
endfacet
facet normal 0.0 0.0 -1.0
  outer loop
    vertex 6.032365752415113 -20.544351063312707 0.0
    vertex 4.177872680088966 -9.931072628660395 0.0
    vertex 8.345812967700864 -19.05758881530981 0.0
  endloop
endfacet
facet normal 0.0 0.0 -1.0
  outer loop
    vertex 6.032365752415113 -20.544351063312707 0.0
    vertex 8.345812967700864 -19.05758881530981 0.0
    vertex 13.115292110079162 -28.718483825461806 0.0
  endloop
endfacet
facet normal 0.0 0.0 -1.0
  outer loop
    vertex 13.115292110079162 -28.718483825461806 0.0
    vertex 8.345812967700864 -19.05758881530981 0.0
    vertex 14.916159128428696 -26.6401724959876 0.0
  endloop
endfacet
facet normal 0.0 0.0 -1.0
  outer loop
    vertex 13.115292110079162 -28.718483825461806 0.0
    vertex 14.916159128428696 -26.6401724959876 0.0
    vertex 22.214229505928316 -34.566015823471695 0.0
  endloop
endfacet
facet normal 0.0 0.0 -1.0
  outer loop
    vertex 22.214229505928316 -34.566015823471695 0.0
    vertex 14.916159128428696 -26.6401724959876 0.0
    vertex 23.3566207916835 -32.06452783624677 0.0
  endloop
endfacet
facet normal 0.0 0.0 -1.0
  outer loop
    vertex 22.214229505928316 -34.566015823471695 0.0
    vertex 23.3566207916835 -32.06452783624677 0.0
    vertex 32.59203614561516 -37.613214791475436 0.0
  endloop
endfacet
facet normal 0.0 0.0 -1.0
  outer loop
    vertex 32.59203614561516 -37.613214791475436 0.0
    vertex 23.3566207916835 -32.06452783624677 0.0
    vertex 32.9834019508667 -34.89120582630288 0.0
  endloop
endfacet
facet normal 0.0 0.0 -1.0
  outer loop
    vertex 32.59203614561516 -37.613214791475436 0.0
    vertex 32.9834019508667 -34.89120582630288 0.0
    vertex 43.40796385438484 -37.613214791475436 0.0
  endloop
endfacet
facet normal 0.0 0.0 -1.0
  outer loop
    vertex 43.40796385438484 -37.613214791475436 0.0
    vertex 32.9834019508667 -34.89120582630288 0.0
    vertex 43.0165980491333 -34.89120582630288 0.0
  endloop
endfacet
facet normal 0.0 0.0 -1.0
  outer loop
    vertex 43.40796385438484 -37.613214791475436 0.0
    vertex 43.0165980491333 -34.89120582630288 0.0
    vertex 52.643379208316496 -32.06452783624677 0.0
  endloop
endfacet
facet normal 0.0 0.0 -1.0
  outer loop
    vertex 43.40796385438484 -37.613214791475436 0.0
    vertex 52.643379208316496 -32.06452783624677 0.0
    vertex 53.785770494071684 -34.566015823471695 0.0
  endloop
endfacet
facet normal 0.0 0.0 -1.0
  outer loop
    vertex 53.785770494071684 -34.566015823471695 0.0
    vertex 52.643379208316496 -32.06452783624677 0.0
    vertex 61.0838408715713 -26.640172495987606 0.0
  endloop
endfacet
facet normal 0.0 0.0 -1.0
  outer loop
    vertex 53.785770494071684 -34.566015823471695 0.0
    vertex 61.0838408715713 -26.640172495987606 0.0
    vertex 62.88470788992082 -28.718483825461817 0.0
  endloop
endfacet
facet normal 0.0 0.0 -1.0
  outer loop
    vertex 62.88470788992082 -28.718483825461817 0.0
    vertex 61.0838408715713 -26.640172495987606 0.0
    vertex 67.65418703229912 -19.05758881530982 0.0
  endloop
endfacet
facet normal 0.0 0.0 -1.0
  outer loop
    vertex 62.88470788992082 -28.718483825461817 0.0
    vertex 67.65418703229912 -19.05758881530982 0.0
    vertex 69.96763424758488 -20.544351063312714 0.0
  endloop
endfacet
facet normal 0.0 0.0 -1.0
  outer loop
    vertex 69.96763424758488 -20.544351063312714 0.0
    vertex 67.65418703229912 -19.05758881530982 0.0
    vertex 71.82212731991102 -9.931072628660408 0.0
  endloop
endfacet
facet normal 0.0 0.0 -1.0
  outer loop
    vertex 69.96763424758488 -20.544351063312714 0.0
    vertex 71.82212731991102 -9.931072628660408 0.0
    vertex 74.46073299735089 -10.705837159974342 0.0
  endloop
endfacet
facet normal 0.0 0.0 -1.0
  outer loop
    vertex 74.46073299735089 -10.705837159974342 0.0
    vertex 71.82212731991102 -9.931072628660408 0.0
    vertex 73.24999999999999 -1.9971024614209124e-14 0.0
  endloop
endfacet
facet normal -0.0 -0.0 1.0
  outer loop
    vertex 1.5392670026491015 -10.705837159974328 6.0
    vertex 1.5392670026491184 10.705837159974395 6.0
    vertex 0.0 0.0 6.0
  endloop
endfacet
facet normal -0.0 -0.0 1.0
  outer loop
    vertex 1.5392670026491184 10.705837159974395 6.0
    vertex 1.5392670026491015 -10.705837159974328 6.0
    vertex 2.7500000000000004 0.0 6.0
  endloop
endfacet
facet normal -0.0 -0.0 1.0
  outer loop
    vertex 2.7500000000000004 0.0 6.0
    vertex 1.5392670026491015 -10.705837159974328 6.0
    vertex 4.177872680088966 -9.931072628660395 6.0
  endloop
endfacet
facet normal -0.0 -0.0 1.0
  outer loop
    vertex 4.177872680088966 -9.931072628660395 6.0
    vertex 1.5392670026491015 -10.705837159974328 6.0
    vertex 6.032365752415113 -20.544351063312707 6.0
  endloop
endfacet
facet normal -0.0 -0.0 1.0
  outer loop
    vertex 4.177872680088966 -9.931072628660395 6.0
    vertex 6.032365752415113 -20.544351063312707 6.0
    vertex 8.345812967700864 -19.05758881530981 6.0
  endloop
endfacet
facet normal -0.0 -0.0 1.0
  outer loop
    vertex 8.345812967700864 -19.05758881530981 6.0
    vertex 6.032365752415113 -20.544351063312707 6.0
    vertex 13.115292110079162 -28.718483825461806 6.0
  endloop
endfacet
facet normal -0.0 -0.0 1.0
  outer loop
    vertex 8.345812967700864 -19.05758881530981 6.0
    vertex 13.115292110079162 -28.718483825461806 6.0
    vertex 14.916159128428696 -26.6401724959876 6.0
  endloop
endfacet
facet normal -0.0 -0.0 1.0
  outer loop
    vertex 14.916159128428696 -26.6401724959876 6.0
    vertex 13.115292110079162 -28.718483825461806 6.0
    vertex 22.214229505928316 -34.566015823471695 6.0
  endloop
endfacet
facet normal -0.0 -0.0 1.0
  outer loop
    vertex 14.916159128428696 -26.6401724959876 6.0
    vertex 22.214229505928316 -34.566015823471695 6.0
    vertex 23.3566207916835 -32.06452783624677 6.0
  endloop
endfacet
facet normal -0.0 -0.0 1.0
  outer loop
    vertex 23.3566207916835 -32.06452783624677 6.0
    vertex 22.214229505928316 -34.566015823471695 6.0
    vertex 32.59203614561516 -37.613214791475436 6.0
  endloop
endfacet
facet normal -0.0 -0.0 1.0
  outer loop
    vertex 23.3566207916835 -32.06452783624677 6.0
    vertex 32.59203614561516 -37.613214791475436 6.0
    vertex 32.9834019508667 -34.89120582630288 6.0
  endloop
endfacet
facet normal -0.0 -0.0 1.0
  outer loop
    vertex 32.9834019508667 -34.89120582630288 6.0
    vertex 32.59203614561516 -37.613214791475436 6.0
    vertex 43.40796385438484 -37.613214791475436 6.0
  endloop
endfacet
facet normal -0.0 -0.0 1.0
  outer loop
    vertex 32.9834019508667 -34.89120582630288 6.0
    vertex 43.40796385438484 -37.613214791475436 6.0
    vertex 43.0165980491333 -34.89120582630288 6.0
  endloop
endfacet
facet normal -0.0 -0.0 1.0
  outer loop
    vertex 43.0165980491333 -34.89120582630288 6.0
    vertex 43.40796385438484 -37.613214791475436 6.0
    vertex 52.643379208316496 -32.06452783624677 6.0
  endloop
endfacet
facet normal -0.0 -0.0 1.0
  outer loop
    vertex 52.643379208316496 -32.06452783624677 6.0
    vertex 43.40796385438484 -37.613214791475436 6.0
    vertex 53.785770494071684 -34.566015823471695 6.0
  endloop
endfacet
facet normal -0.0 -0.0 1.0
  outer loop
    vertex 52.643379208316496 -32.06452783624677 6.0
    vertex 53.785770494071684 -34.566015823471695 6.0
    vertex 61.0838408715713 -26.640172495987606 6.0
  endloop
endfacet
facet normal -0.0 -0.0 1.0
  outer loop
    vertex 61.0838408715713 -26.640172495987606 6.0
    vertex 53.785770494071684 -34.566015823471695 6.0
    vertex 62.88470788992082 -28.718483825461817 6.0
  endloop
endfacet
facet normal -0.0 -0.0 1.0
  outer loop
    vertex 61.0838408715713 -26.640172495987606 6.0
    vertex 62.88470788992082 -28.718483825461817 6.0
    vertex 67.65418703229912 -19.05758881530982 6.0
  endloop
endfacet
facet normal -0.0 -0.0 1.0
  outer loop
    vertex 67.65418703229912 -19.05758881530982 6.0
    vertex 62.88470788992082 -28.718483825461817 6.0
    vertex 69.96763424758488 -20.544351063312714 6.0
  endloop
endfacet
facet normal -0.0 -0.0 1.0
  outer loop
    vertex 67.65418703229912 -19.05758881530982 6.0
    vertex 69.96763424758488 -20.544351063312714 6.0
    vertex 71.82212731991102 -9.931072628660408 6.0
  endloop
endfacet
facet normal -0.0 -0.0 1.0
  outer loop
    vertex 71.82212731991102 -9.931072628660408 6.0
    vertex 69.96763424758488 -20.544351063312714 6.0
    vertex 74.46073299735089 -10.705837159974342 6.0
  endloop
endfacet
facet normal -0.0 -0.0 1.0
  outer loop
    vertex 71.82212731991102 -9.931072628660408 6.0
    vertex 74.46073299735089 -10.705837159974342 6.0
    vertex 73.24999999999999 -1.9971024614209124e-14 6.0
  endloop
endfacet
facet normal -0.0 -0.0 1.0
  outer loop
    vertex 1.5392670026491184 10.705837159974395 6.0
    vertex 4.177872680088983 9.931072628660457 6.0
    vertex 6.032365752415147 20.54435106331276 6.0
  endloop
endfacet
facet normal -0.0 -0.0 1.0
  outer loop
    vertex 4.177872680088983 9.931072628660457 6.0
    vertex 1.5392670026491184 10.705837159974395 6.0
    vertex 2.7500000000000004 0.0 6.0
  endloop
endfacet
facet normal -0.0 -0.0 1.0
  outer loop
    vertex 6.032365752415147 20.54435106331276 6.0
    vertex 4.177872680088983 9.931072628660457 6.0
    vertex 8.345812967700892 19.057588815309863 6.0
  endloop
endfacet
facet normal -0.0 -0.0 1.0
  outer loop
    vertex 6.032365752415147 20.54435106331276 6.0
    vertex 8.345812967700892 19.057588815309863 6.0
    vertex 13.115292110079213 28.718483825461853 6.0
  endloop
endfacet
facet normal -0.0 -0.0 1.0
  outer loop
    vertex 13.115292110079213 28.718483825461853 6.0
    vertex 8.345812967700892 19.057588815309863 6.0
    vertex 14.916159128428744 26.640172495987635 6.0
  endloop
endfacet
facet normal -0.0 -0.0 1.0
  outer loop
    vertex 13.115292110079213 28.718483825461853 6.0
    vertex 14.916159128428744 26.640172495987635 6.0
    vertex 22.21422950592836 34.566015823471716 6.0
  endloop
endfacet
facet normal -0.0 -0.0 1.0
  outer loop
    vertex 22.21422950592836 34.566015823471716 6.0
    vertex 14.916159128428744 26.640172495987635 6.0
    vertex 23.356620791683547 32.06452783624679 6.0
  endloop
endfacet
facet normal -0.0 -0.0 1.0
  outer loop
    vertex 22.21422950592836 34.566015823471716 6.0
    vertex 23.356620791683547 32.06452783624679 6.0
    vertex 32.59203614561521 37.61321479147545 6.0
  endloop
endfacet
facet normal -0.0 -0.0 1.0
  outer loop
    vertex 32.59203614561521 37.61321479147545 6.0
    vertex 23.356620791683547 32.06452783624679 6.0
    vertex 32.983401950866735 34.89120582630288 6.0
  endloop
endfacet
facet normal -0.0 -0.0 1.0
  outer loop
    vertex 32.59203614561521 37.61321479147545 6.0
    vertex 32.983401950866735 34.89120582630288 6.0
    vertex 43.407963854384874 37.613214791475436 6.0
  endloop
endfacet
facet normal -0.0 -0.0 1.0
  outer loop
    vertex 43.407963854384874 37.613214791475436 6.0
    vertex 32.983401950866735 34.89120582630288 6.0
    vertex 43.01659804913333 34.89120582630287 6.0
  endloop
endfacet
facet normal -0.0 -0.0 1.0
  outer loop
    vertex 43.407963854384874 37.613214791475436 6.0
    vertex 43.01659804913333 34.89120582630287 6.0
    vertex 52.64337920831652 32.06452783624676 6.0
  endloop
endfacet
facet normal -0.0 -0.0 1.0
  outer loop
    vertex 43.407963854384874 37.613214791475436 6.0
    vertex 52.64337920831652 32.06452783624676 6.0
    vertex 53.785770494071706 34.56601582347168 6.0
  endloop
endfacet
facet normal -0.0 -0.0 1.0
  outer loop
    vertex 53.785770494071706 34.56601582347168 6.0
    vertex 52.64337920831652 32.06452783624676 6.0
    vertex 61.08384087157132 26.640172495987574 6.0
  endloop
endfacet
facet normal -0.0 -0.0 1.0
  outer loop
    vertex 53.785770494071706 34.56601582347168 6.0
    vertex 61.08384087157132 26.640172495987574 6.0
    vertex 62.88470788992087 28.718483825461785 6.0
  endloop
endfacet
facet normal -0.0 -0.0 1.0
  outer loop
    vertex 62.88470788992087 28.718483825461785 6.0
    vertex 61.08384087157132 26.640172495987574 6.0
    vertex 67.65418703229915 19.057588815309785 6.0
  endloop
endfacet
facet normal -0.0 -0.0 1.0
  outer loop
    vertex 62.88470788992087 28.718483825461785 6.0
    vertex 67.65418703229915 19.057588815309785 6.0
    vertex 69.9676342475849 20.54435106331268 6.0
  endloop
endfacet
facet normal -0.0 -0.0 1.0
  outer loop
    vertex 69.9676342475849 20.54435106331268 6.0
    vertex 67.65418703229915 19.057588815309785 6.0
    vertex 71.82212731991105 9.931072628660372 6.0
  endloop
endfacet
facet normal -0.0 -0.0 1.0
  outer loop
    vertex 69.9676342475849 20.54435106331268 6.0
    vertex 71.82212731991105 9.931072628660372 6.0
    vertex 74.46073299735092 10.705837159974301 6.0
  endloop
endfacet
facet normal -0.0 -0.0 1.0
  outer loop
    vertex 74.46073299735092 10.705837159974301 6.0
    vertex 71.82212731991105 9.931072628660372 6.0
    vertex 73.24999999999999 -1.9971024614209124e-14 6.0
  endloop
endfacet
facet normal -0.0 -0.0 1.0
  outer loop
    vertex 74.46073299735092 10.705837159974301 6.0
    vertex 73.24999999999999 -1.9971024614209124e-14 6.0
    vertex 74.46073299735089 -10.705837159974342 6.0
  endloop
endfacet
facet normal -0.0 -0.0 1.0
  outer loop
    vertex 74.46073299735092 10.705837159974301 6.0
    vertex 74.46073299735089 -10.705837159974342 6.0
    vertex 76.0 -2.152904781106232e-14 6.0
  endloop
endfacet
facet normal -0.9898214418809326 0.14231483827328603 0.0
  outer loop
    vertex 1.5392670026491184 10.705837159974395 6.0
    vertex 0.0 0.0 0.0
    vertex 0.0 0.0 6.0
  endloop
endfacet
facet normal -0.9898214418809326 0.14231483827328603 0.0
  outer loop
    vertex 0.0 0.0 0.0
    vertex 1.5392670026491184 10.705837159974395 6.0
    vertex 1.5392670026491184 10.705837159974395 0.0
  endloop
endfacet
facet normal -0.9096319953545178 0.41541501300188777 0.0
  outer loop
    vertex 6.032365752415147 20.54435106331276 6.0
    vertex 1.5392670026491184 10.705837159974395 0.0
    vertex 1.5392670026491184 10.705837159974395 6.0
  endloop
endfacet
facet normal -0.9096319953545178 0.41541501300188777 0.0
  outer loop
    vertex 1.5392670026491184 10.705837159974395 0.0
    vertex 6.032365752415147 20.54435106331276 6.0
    vertex 6.032365752415147 20.54435106331276 0.0
  endloop
endfacet
facet normal -0.7557495743542572 0.6548607339452867 0.0
  outer loop
    vertex 13.115292110079213 28.718483825461853 6.0
    vertex 6.032365752415147 20.54435106331276 0.0
    vertex 6.032365752415147 20.54435106331276 6.0
  endloop
endfacet
facet normal -0.7557495743542572 0.6548607339452867 0.0
  outer loop
    vertex 6.032365752415147 20.54435106331276 0.0
    vertex 13.115292110079213 28.718483825461853 6.0
    vertex 13.115292110079213 28.718483825461853 0.0
  endloop
endfacet
facet normal -0.5406408174555966 0.841253532831182 0.0
  outer loop
    vertex 13.115292110079213 28.718483825461853 6.0
    vertex 22.21422950592836 34.566015823471716 0.0
    vertex 13.115292110079213 28.718483825461853 0.0
  endloop
endfacet
facet normal -0.5406408174555966 0.841253532831182 0.0
  outer loop
    vertex 22.21422950592836 34.566015823471716 0.0
    vertex 13.115292110079213 28.718483825461853 6.0
    vertex 22.21422950592836 34.566015823471716 6.0
  endloop
endfacet
facet normal -0.28173255684142856 0.9594929736144978 0.0
  outer loop
    vertex 22.21422950592836 34.566015823471716 6.0
    vertex 32.59203614561521 37.61321479147545 0.0
    vertex 22.21422950592836 34.566015823471716 0.0
  endloop
endfacet
facet normal -0.28173255684142856 0.9594929736144978 0.0
  outer loop
    vertex 32.59203614561521 37.61321479147545 0.0
    vertex 22.21422950592836 34.566015823471716 6.0
    vertex 32.59203614561521 37.61321479147545 6.0
  endloop
endfacet
facet normal 1.0428939831990335e-15 1.0 0.0
  outer loop
    vertex 32.59203614561521 37.61321479147545 6.0
    vertex 43.407963854384874 37.613214791475436 0.0
    vertex 32.59203614561521 37.61321479147545 0.0
  endloop
endfacet
facet normal 1.0428939831990335e-15 1.0 0.0
  outer loop
    vertex 43.407963854384874 37.613214791475436 0.0
    vertex 32.59203614561521 37.61321479147545 6.0
    vertex 43.407963854384874 37.613214791475436 6.0
  endloop
endfacet
facet normal 0.2817325568414308 0.959492973614497 0.0
  outer loop
    vertex 43.407963854384874 37.613214791475436 6.0
    vertex 53.785770494071706 34.56601582347168 0.0
    vertex 43.407963854384874 37.613214791475436 0.0
  endloop
endfacet
facet normal 0.2817325568414308 0.959492973614497 0.0
  outer loop
    vertex 53.785770494071706 34.56601582347168 0.0
    vertex 43.407963854384874 37.613214791475436 6.0
    vertex 53.785770494071706 34.56601582347168 6.0
  endloop
endfacet
facet normal 0.5406408174555982 0.8412535328311808 0.0
  outer loop
    vertex 53.785770494071706 34.56601582347168 6.0
    vertex 62.88470788992087 28.718483825461785 0.0
    vertex 53.785770494071706 34.56601582347168 0.0
  endloop
endfacet
facet normal 0.5406408174555982 0.8412535328311808 0.0
  outer loop
    vertex 62.88470788992087 28.718483825461785 0.0
    vertex 53.785770494071706 34.56601582347168 6.0
    vertex 62.88470788992087 28.718483825461785 6.0
  endloop
endfacet
facet normal 0.755749574354259 0.6548607339452842 0.0
  outer loop
    vertex 62.88470788992087 28.718483825461785 0.0
    vertex 69.9676342475849 20.54435106331268 6.0
    vertex 69.9676342475849 20.54435106331268 0.0
  endloop
endfacet
facet normal 0.755749574354259 0.6548607339452842 0.0
  outer loop
    vertex 69.9676342475849 20.54435106331268 6.0
    vertex 62.88470788992087 28.718483825461785 0.0
    vertex 62.88470788992087 28.718483825461785 6.0
  endloop
endfacet
facet normal 0.9096319953545186 0.4154150130018862 0.0
  outer loop
    vertex 69.9676342475849 20.54435106331268 0.0
    vertex 74.46073299735092 10.705837159974301 6.0
    vertex 74.46073299735092 10.705837159974301 0.0
  endloop
endfacet
facet normal 0.9096319953545186 0.4154150130018862 0.0
  outer loop
    vertex 74.46073299735092 10.705837159974301 6.0
    vertex 69.9676342475849 20.54435106331268 0.0
    vertex 69.9676342475849 20.54435106331268 6.0
  endloop
endfacet
facet normal 0.9898214418809329 0.1423148382732839 0.0
  outer loop
    vertex 74.46073299735092 10.705837159974301 0.0
    vertex 76.0 -2.152904781106232e-14 6.0
    vertex 76.0 -2.152904781106232e-14 0.0
  endloop
endfacet
facet normal 0.9898214418809329 0.1423148382732839 0.0
  outer loop
    vertex 76.0 -2.152904781106232e-14 6.0
    vertex 74.46073299735092 10.705837159974301 0.0
    vertex 74.46073299735092 10.705837159974301 6.0
  endloop
endfacet
facet normal 0.9898214418809326 -0.14231483827328598 0.0
  outer loop
    vertex 76.0 -2.152904781106232e-14 0.0
    vertex 74.46073299735089 -10.705837159974342 6.0
    vertex 74.46073299735089 -10.705837159974342 0.0
  endloop
endfacet
facet normal 0.9898214418809326 -0.14231483827328598 0.0
  outer loop
    vertex 74.46073299735089 -10.705837159974342 6.0
    vertex 76.0 -2.152904781106232e-14 0.0
    vertex 76.0 -2.152904781106232e-14 6.0
  endloop
endfacet
facet normal 0.9096319953545186 -0.4154150130018863 0.0
  outer loop
    vertex 74.46073299735089 -10.705837159974342 0.0
    vertex 69.96763424758488 -20.544351063312714 6.0
    vertex 69.96763424758488 -20.544351063312714 0.0
  endloop
endfacet
facet normal 0.9096319953545186 -0.4154150130018863 0.0
  outer loop
    vertex 69.96763424758488 -20.544351063312714 6.0
    vertex 74.46073299735089 -10.705837159974342 0.0
    vertex 74.46073299735089 -10.705837159974342 6.0
  endloop
endfacet
facet normal 0.755749574354258 -0.6548607339452855 0.0
  outer loop
    vertex 69.96763424758488 -20.544351063312714 0.0
    vertex 62.88470788992082 -28.718483825461817 6.0
    vertex 62.88470788992082 -28.718483825461817 0.0
  endloop
endfacet
facet normal 0.755749574354258 -0.6548607339452855 0.0
  outer loop
    vertex 62.88470788992082 -28.718483825461817 6.0
    vertex 69.96763424758488 -20.544351063312714 0.0
    vertex 69.96763424758488 -20.544351063312714 6.0
  endloop
endfacet
facet normal 0.5406408174555977 -0.8412535328311811 0.0
  outer loop
    vertex 62.88470788992082 -28.718483825461817 6.0
    vertex 53.785770494071684 -34.566015823471695 0.0
    vertex 62.88470788992082 -28.718483825461817 0.0
  endloop
endfacet
facet normal 0.5406408174555977 -0.8412535328311811 0.0
  outer loop
    vertex 53.785770494071684 -34.566015823471695 0.0
    vertex 62.88470788992082 -28.718483825461817 6.0
    vertex 53.785770494071684 -34.566015823471695 6.0
  endloop
endfacet
facet normal 0.28173255684142956 -0.9594929736144976 0.0
  outer loop
    vertex 53.785770494071684 -34.566015823471695 6.0
    vertex 43.40796385438484 -37.613214791475436 0.0
    vertex 53.785770494071684 -34.566015823471695 0.0
  endloop
endfacet
facet normal 0.28173255684142956 -0.9594929736144976 0.0
  outer loop
    vertex 43.40796385438484 -37.613214791475436 0.0
    vertex 53.785770494071684 -34.566015823471695 6.0
    vertex 43.40796385438484 -37.613214791475436 6.0
  endloop
endfacet
facet normal -0.0 -1.0 -0.0
  outer loop
    vertex 43.40796385438484 -37.613214791475436 6.0
    vertex 32.59203614561516 -37.613214791475436 0.0
    vertex 43.40796385438484 -37.613214791475436 0.0
  endloop
endfacet
facet normal -0.0 -1.0 -0.0
  outer loop
    vertex 32.59203614561516 -37.613214791475436 0.0
    vertex 43.40796385438484 -37.613214791475436 6.0
    vertex 32.59203614561516 -37.613214791475436 6.0
  endloop
endfacet
facet normal -0.28173255684142956 -0.9594929736144976 -0.0
  outer loop
    vertex 32.59203614561516 -37.613214791475436 6.0
    vertex 22.214229505928316 -34.566015823471695 0.0
    vertex 32.59203614561516 -37.613214791475436 0.0
  endloop
endfacet
facet normal -0.28173255684142956 -0.9594929736144976 -0.0
  outer loop
    vertex 22.214229505928316 -34.566015823471695 0.0
    vertex 32.59203614561516 -37.613214791475436 6.0
    vertex 22.214229505928316 -34.566015823471695 6.0
  endloop
endfacet
facet normal -0.5406408174555978 -0.841253532831181 -0.0
  outer loop
    vertex 22.214229505928316 -34.566015823471695 6.0
    vertex 13.115292110079162 -28.718483825461806 0.0
    vertex 22.214229505928316 -34.566015823471695 0.0
  endloop
endfacet
facet normal -0.5406408174555978 -0.841253532831181 -0.0
  outer loop
    vertex 13.115292110079162 -28.718483825461806 0.0
    vertex 22.214229505928316 -34.566015823471695 6.0
    vertex 13.115292110079162 -28.718483825461806 6.0
  endloop
endfacet
facet normal -0.7557495743542583 -0.6548607339452852 -0.0
  outer loop
    vertex 6.032365752415113 -20.544351063312707 6.0
    vertex 13.115292110079162 -28.718483825461806 0.0
    vertex 13.115292110079162 -28.718483825461806 6.0
  endloop
endfacet
facet normal -0.7557495743542583 -0.6548607339452852 -0.0
  outer loop
    vertex 13.115292110079162 -28.718483825461806 0.0
    vertex 6.032365752415113 -20.544351063312707 6.0
    vertex 6.032365752415113 -20.544351063312707 0.0
  endloop
endfacet
facet normal -0.9096319953545186 -0.41541501300188605 -0.0
  outer loop
    vertex 1.5392670026491015 -10.705837159974328 6.0
    vertex 6.032365752415113 -20.544351063312707 0.0
    vertex 6.032365752415113 -20.544351063312707 6.0
  endloop
endfacet
facet normal -0.9096319953545186 -0.41541501300188605 -0.0
  outer loop
    vertex 6.032365752415113 -20.544351063312707 0.0
    vertex 1.5392670026491015 -10.705837159974328 6.0
    vertex 1.5392670026491015 -10.705837159974328 0.0
  endloop
endfacet
facet normal -0.9898214418809327 -0.14231483827328537 -0.0
  outer loop
    vertex 0.0 0.0 6.0
    vertex 1.5392670026491015 -10.705837159974328 0.0
    vertex 1.5392670026491015 -10.705837159974328 6.0
  endloop
endfacet
facet normal -0.9898214418809327 -0.14231483827328537 -0.0
  outer loop
    vertex 1.5392670026491015 -10.705837159974328 0.0
    vertex 0.0 0.0 6.0
    vertex 0.0 0.0 0.0
  endloop
endfacet
facet normal -0.9898214418809328 -0.14231483827328506 0.0
  outer loop
    vertex 2.7500000000000004 0.0 0.0
    vertex 4.177872680088966 -9.931072628660395 -2.0000000000000004
    vertex 4.177872680088966 -9.931072628660395 0.0
  endloop
endfacet
facet normal -0.9898214418809328 -0.14231483827328506 0.0
  outer loop
    vertex 4.177872680088966 -9.931072628660395 -2.0000000000000004
    vertex 2.7500000000000004 0.0 0.0
    vertex 2.7500000000000004 0.0 -2.0000000000000004
  endloop
endfacet
facet normal -0.9096319953545183 -0.41541501300188655 0.0
  outer loop
    vertex 4.177872680088966 -9.931072628660395 0.0
    vertex 8.345812967700864 -19.05758881530981 -2.0000000000000004
    vertex 8.345812967700864 -19.05758881530981 0.0
  endloop
endfacet
facet normal -0.9096319953545183 -0.41541501300188655 0.0
  outer loop
    vertex 8.345812967700864 -19.05758881530981 -2.0000000000000004
    vertex 4.177872680088966 -9.931072628660395 0.0
    vertex 4.177872680088966 -9.931072628660395 -2.0000000000000004
  endloop
endfacet
facet normal -0.7557495743542587 -0.6548607339452849 0.0
  outer loop
    vertex 8.345812967700864 -19.05758881530981 0.0
    vertex 14.916159128428696 -26.6401724959876 -2.0000000000000004
    vertex 14.916159128428696 -26.6401724959876 0.0
  endloop
endfacet
facet normal -0.7557495743542587 -0.6548607339452849 0.0
  outer loop
    vertex 14.916159128428696 -26.6401724959876 -2.0000000000000004
    vertex 8.345812967700864 -19.05758881530981 0.0
    vertex 8.345812967700864 -19.05758881530981 -2.0000000000000004
  endloop
endfacet
facet normal -0.5406408174555976 -0.8412535328311813 0.0
  outer loop
    vertex 23.3566207916835 -32.06452783624677 0.0
    vertex 14.916159128428696 -26.6401724959876 -2.0000000000000004
    vertex 23.3566207916835 -32.06452783624677 -2.0000000000000004
  endloop
endfacet
facet normal -0.5406408174555976 -0.8412535328311813 0.0
  outer loop
    vertex 14.916159128428696 -26.6401724959876 -2.0000000000000004
    vertex 23.3566207916835 -32.06452783624677 0.0
    vertex 14.916159128428696 -26.6401724959876 0.0
  endloop
endfacet
facet normal -0.2817325568414297 -0.9594929736144975 0.0
  outer loop
    vertex 32.9834019508667 -34.89120582630288 0.0
    vertex 23.3566207916835 -32.06452783624677 -2.0000000000000004
    vertex 32.9834019508667 -34.89120582630288 -2.0000000000000004
  endloop
endfacet
facet normal -0.2817325568414297 -0.9594929736144975 0.0
  outer loop
    vertex 23.3566207916835 -32.06452783624677 -2.0000000000000004
    vertex 32.9834019508667 -34.89120582630288 0.0
    vertex 23.3566207916835 -32.06452783624677 0.0
  endloop
endfacet
facet normal 0.0 -1.0 0.0
  outer loop
    vertex 43.0165980491333 -34.89120582630288 0.0
    vertex 32.9834019508667 -34.89120582630288 -2.0000000000000004
    vertex 43.0165980491333 -34.89120582630288 -2.0000000000000004
  endloop
endfacet
facet normal 0.0 -1.0 0.0
  outer loop
    vertex 32.9834019508667 -34.89120582630288 -2.0000000000000004
    vertex 43.0165980491333 -34.89120582630288 0.0
    vertex 32.9834019508667 -34.89120582630288 0.0
  endloop
endfacet
facet normal 0.2817325568414298 -0.9594929736144975 0.0
  outer loop
    vertex 52.643379208316496 -32.06452783624677 0.0
    vertex 43.0165980491333 -34.89120582630288 -2.0000000000000004
    vertex 52.643379208316496 -32.06452783624677 -2.0000000000000004
  endloop
endfacet
facet normal 0.2817325568414298 -0.9594929736144975 0.0
  outer loop
    vertex 43.0165980491333 -34.89120582630288 -2.0000000000000004
    vertex 52.643379208316496 -32.06452783624677 0.0
    vertex 43.0165980491333 -34.89120582630288 0.0
  endloop
endfacet
facet normal 0.5406408174555974 -0.8412535328311813 0.0
  outer loop
    vertex 61.0838408715713 -26.640172495987606 0.0
    vertex 52.643379208316496 -32.06452783624677 -2.0000000000000004
    vertex 61.0838408715713 -26.640172495987606 -2.0000000000000004
  endloop
endfacet
facet normal 0.5406408174555974 -0.8412535328311813 0.0
  outer loop
    vertex 52.643379208316496 -32.06452783624677 -2.0000000000000004
    vertex 61.0838408715713 -26.640172495987606 0.0
    vertex 52.643379208316496 -32.06452783624677 0.0
  endloop
endfacet
facet normal 0.7557495743542587 -0.6548607339452848 -0.0
  outer loop
    vertex 67.65418703229912 -19.05758881530982 -2.0000000000000004
    vertex 61.0838408715713 -26.640172495987606 0.0
    vertex 61.0838408715713 -26.640172495987606 -2.0000000000000004
  endloop
endfacet
facet normal 0.7557495743542587 -0.6548607339452848 -0.0
  outer loop
    vertex 61.0838408715713 -26.640172495987606 0.0
    vertex 67.65418703229912 -19.05758881530982 -2.0000000000000004
    vertex 67.65418703229912 -19.05758881530982 0.0
  endloop
endfacet
facet normal 0.9096319953545186 -0.4154150130018863 -0.0
  outer loop
    vertex 71.82212731991102 -9.931072628660408 -2.0000000000000004
    vertex 67.65418703229912 -19.05758881530982 0.0
    vertex 67.65418703229912 -19.05758881530982 -2.0000000000000004
  endloop
endfacet
facet normal 0.9096319953545186 -0.4154150130018863 -0.0
  outer loop
    vertex 67.65418703229912 -19.05758881530982 0.0
    vertex 71.82212731991102 -9.931072628660408 -2.0000000000000004
    vertex 71.82212731991102 -9.931072628660408 0.0
  endloop
endfacet
facet normal 0.9898214418809328 -0.1423148382732856 -5.574628323390656e-16
  outer loop
    vertex 73.24999999999999 -4.3168799669944195e-15 -2.0000000000000004
    vertex 71.82212731991102 -9.931072628660408 0.0
    vertex 71.82212731991102 -9.931072628660408 -2.0000000000000004
  endloop
endfacet
facet normal 0.9898214418809328 -0.1423148382732856 -5.574628323390656e-16
  outer loop
    vertex 71.82212731991102 -9.931072628660408 0.0
    vertex 73.24999999999999 -4.3168799669944195e-15 -2.0000000000000004
    vertex 73.24999999999999 -1.9971024614209124e-14 0.0
  endloop
endfacet
facet normal 0.989821441880933 0.14231483827328353 5.375534454698055e-16
  outer loop
    vertex 73.24999999999999 -4.3168799669944195e-15 -2.0000000000000004
    vertex 71.82212731991105 9.931072628660372 0.0
    vertex 73.24999999999999 -1.9971024614209124e-14 0.0
  endloop
endfacet
facet normal 0.989821441880933 0.14231483827328353 5.375534454698055e-16
  outer loop
    vertex 71.82212731991105 9.931072628660372 0.0
    vertex 73.24999999999999 -4.3168799669944195e-15 -2.0000000000000004
    vertex 71.82212731991105 9.931072628660372 -2.0000000000000004
  endloop
endfacet
facet normal 0.9096319953545186 0.4154150130018862 -0.0
  outer loop
    vertex 67.65418703229915 19.057588815309785 -2.0000000000000004
    vertex 71.82212731991105 9.931072628660372 0.0
    vertex 71.82212731991105 9.931072628660372 -2.0000000000000004
  endloop
endfacet
facet normal 0.9096319953545186 0.4154150130018862 -0.0
  outer loop
    vertex 71.82212731991105 9.931072628660372 0.0
    vertex 67.65418703229915 19.057588815309785 -2.0000000000000004
    vertex 67.65418703229915 19.057588815309785 0.0
  endloop
endfacet
facet normal 0.7557495743542587 0.6548607339452848 -0.0
  outer loop
    vertex 61.08384087157132 26.640172495987574 -2.0000000000000004
    vertex 67.65418703229915 19.057588815309785 0.0
    vertex 67.65418703229915 19.057588815309785 -2.0000000000000004
  endloop
endfacet
facet normal 0.7557495743542587 0.6548607339452848 -0.0
  outer loop
    vertex 67.65418703229915 19.057588815309785 0.0
    vertex 61.08384087157132 26.640172495987574 -2.0000000000000004
    vertex 61.08384087157132 26.640172495987574 0.0
  endloop
endfacet
facet normal 0.540640817455599 0.8412535328311803 -0.0
  outer loop
    vertex 52.64337920831652 32.06452783624676 0.0
    vertex 61.08384087157132 26.640172495987574 -2.0000000000000004
    vertex 52.64337920831652 32.06452783624676 -2.0000000000000004
  endloop
endfacet
facet normal 0.540640817455599 0.8412535328311803 -0.0
  outer loop
    vertex 61.08384087157132 26.640172495987574 -2.0000000000000004
    vertex 52.64337920831652 32.06452783624676 0.0
    vertex 61.08384087157132 26.640172495987574 0.0
  endloop
endfacet
facet normal 0.28173255684143056 0.9594929736144973 -0.0
  outer loop
    vertex 43.01659804913333 34.89120582630287 0.0
    vertex 52.64337920831652 32.06452783624676 -2.0000000000000004
    vertex 43.01659804913333 34.89120582630287 -2.0000000000000004
  endloop
endfacet
facet normal 0.28173255684143056 0.9594929736144973 -0.0
  outer loop
    vertex 52.64337920831652 32.06452783624676 -2.0000000000000004
    vertex 43.01659804913333 34.89120582630287 0.0
    vertex 52.64337920831652 32.06452783624676 0.0
  endloop
endfacet
facet normal 1.1242545067110151e-15 1.0 -0.0
  outer loop
    vertex 32.983401950866735 34.89120582630288 0.0
    vertex 43.01659804913333 34.89120582630287 -2.0000000000000004
    vertex 32.983401950866735 34.89120582630288 -2.0000000000000004
  endloop
endfacet
facet normal 1.1242545067110151e-15 1.0 -0.0
  outer loop
    vertex 43.01659804913333 34.89120582630287 -2.0000000000000004
    vertex 32.983401950866735 34.89120582630288 0.0
    vertex 43.01659804913333 34.89120582630287 0.0
  endloop
endfacet
facet normal -0.28173255684142884 0.9594929736144977 -0.0
  outer loop
    vertex 23.356620791683547 32.06452783624679 0.0
    vertex 32.983401950866735 34.89120582630288 -2.0000000000000004
    vertex 23.356620791683547 32.06452783624679 -2.0000000000000004
  endloop
endfacet
facet normal -0.28173255684142884 0.9594929736144977 -0.0
  outer loop
    vertex 32.983401950866735 34.89120582630288 -2.0000000000000004
    vertex 23.356620791683547 32.06452783624679 0.0
    vertex 32.983401950866735 34.89120582630288 0.0
  endloop
endfacet
facet normal -0.5406408174555964 0.8412535328311821 -0.0
  outer loop
    vertex 14.916159128428744 26.640172495987635 0.0
    vertex 23.356620791683547 32.06452783624679 -2.0000000000000004
    vertex 14.916159128428744 26.640172495987635 -2.0000000000000004
  endloop
endfacet
facet normal -0.5406408174555964 0.8412535328311821 -0.0
  outer loop
    vertex 23.356620791683547 32.06452783624679 -2.0000000000000004
    vertex 14.916159128428744 26.640172495987635 0.0
    vertex 23.356620791683547 32.06452783624679 0.0
  endloop
endfacet
facet normal -0.7557495743542569 0.6548607339452868 0.0
  outer loop
    vertex 14.916159128428744 26.640172495987635 0.0
    vertex 8.345812967700892 19.057588815309863 -2.0000000000000004
    vertex 8.345812967700892 19.057588815309863 0.0
  endloop
endfacet
facet normal -0.7557495743542569 0.6548607339452868 0.0
  outer loop
    vertex 8.345812967700892 19.057588815309863 -2.0000000000000004
    vertex 14.916159128428744 26.640172495987635 0.0
    vertex 14.916159128428744 26.640172495987635 -2.0000000000000004
  endloop
endfacet
facet normal -0.9096319953545178 0.4154150130018879 0.0
  outer loop
    vertex 8.345812967700892 19.057588815309863 0.0
    vertex 4.177872680088983 9.931072628660457 -2.0000000000000004
    vertex 4.177872680088983 9.931072628660457 0.0
  endloop
endfacet
facet normal -0.9096319953545178 0.4154150130018879 0.0
  outer loop
    vertex 4.177872680088983 9.931072628660457 -2.0000000000000004
    vertex 8.345812967700892 19.057588815309863 0.0
    vertex 8.345812967700892 19.057588815309863 -2.0000000000000004
  endloop
endfacet
facet normal -0.9898214418809328 0.14231483827328578 0.0
  outer loop
    vertex 4.177872680088983 9.931072628660457 0.0
    vertex 2.7500000000000004 0.0 -2.0000000000000004
    vertex 2.7500000000000004 0.0 0.0
  endloop
endfacet
facet normal -0.9898214418809328 0.14231483827328578 0.0
  outer loop
    vertex 2.7500000000000004 0.0 -2.0000000000000004
    vertex 4.177872680088983 9.931072628660457 0.0
    vertex 4.177872680088983 9.931072628660457 -2.0000000000000004
  endloop
endfacet
facet normal -0.9898214418809328 0.1423148382732847 -3.4233175156573746e-15
  outer loop
    vertex 73.24999999999999 -1.9971024614209124e-14 6.0
    vertex 71.82212731991105 -9.931072628660372 3.9999999999999996
    vertex 71.82212731991102 -9.931072628660408 6.0
  endloop
endfacet
facet normal -0.9898214418809328 0.1423148382732847 -3.4233175156573746e-15
  outer loop
    vertex 71.82212731991105 -9.931072628660372 3.9999999999999996
    vertex 73.24999999999999 -1.9971024614209124e-14 6.0
    vertex 73.24999999999999 4.3168799669944195e-15 3.9999999999999996
  endloop
endfacet
facet normal -0.7557495743542587 -0.6548607339452849 -2.7186201216545375e-15
  outer loop
    vertex 61.08384087157132 26.640172495987574 6.0
    vertex 67.65418703229912 19.05758881530982 3.9999999999999996
    vertex 67.65418703229915 19.057588815309785 6.0
  endloop
endfacet
facet normal -0.7557495743542587 -0.6548607339452849 -2.7186201216545375e-15
  outer loop
    vertex 67.65418703229912 19.05758881530982 3.9999999999999996
    vertex 61.08384087157132 26.640172495987574 6.0
    vertex 61.0838408715713 26.640172495987606 3.9999999999999996
  endloop
endfacet
facet normal -0.9096319953545186 0.41541501300188616 -2.9851033872695454e-15
  outer loop
    vertex 71.82212731991102 -9.931072628660408 6.0
    vertex 67.65418703229915 -19.057588815309785 3.9999999999999996
    vertex 67.65418703229912 -19.05758881530982 6.0
  endloop
endfacet
facet normal -0.9096319953545186 0.41541501300188616 -2.9851033872695454e-15
  outer loop
    vertex 67.65418703229915 -19.057588815309785 3.9999999999999996
    vertex 71.82212731991102 -9.931072628660408 6.0
    vertex 71.82212731991105 -9.931072628660372 3.9999999999999996
  endloop
endfacet
facet normal -0.7557495743542587 0.6548607339452849 2.7186201216545375e-15
  outer loop
    vertex 67.65418703229912 -19.05758881530982 6.0
    vertex 61.08384087157132 -26.640172495987574 3.9999999999999996
    vertex 61.0838408715713 -26.640172495987606 6.0
  endloop
endfacet
facet normal -0.7557495743542587 0.6548607339452849 2.7186201216545375e-15
  outer loop
    vertex 61.08384087157132 -26.640172495987574 3.9999999999999996
    vertex 67.65418703229912 -19.05758881530982 6.0
    vertex 67.65418703229915 -19.057588815309785 3.9999999999999996
  endloop
endfacet
facet normal -5.621272533555069e-16 1.0 -9.43677476720781e-30
  outer loop
    vertex 32.9834019508667 -34.89120582630288 6.0
    vertex 43.01659804913333 -34.89120582630287 3.9999999999999996
    vertex 32.983401950866735 -34.89120582630288 3.9999999999999996
  endloop
endfacet
facet normal -5.621272533555069e-16 1.0 -9.43677476720781e-30
  outer loop
    vertex 43.01659804913333 -34.89120582630287 3.9999999999999996
    vertex 32.9834019508667 -34.89120582630288 6.0
    vertex 43.0165980491333 -34.89120582630288 6.0
  endloop
endfacet
facet normal -0.5406408174555981 -0.8412535328311809 -3.21311213238462e-15
  outer loop
    vertex 61.08384087157132 26.640172495987574 6.0
    vertex 52.643379208316496 32.06452783624677 3.9999999999999996
    vertex 61.0838408715713 26.640172495987606 3.9999999999999996
  endloop
endfacet
facet normal -0.5406408174555981 -0.8412535328311809 -3.21311213238462e-15
  outer loop
    vertex 52.643379208316496 32.06452783624677 3.9999999999999996
    vertex 61.08384087157132 26.640172495987574 6.0
    vertex 52.64337920831652 32.06452783624676 6.0
  endloop
endfacet
facet normal 0.5406408174555971 0.8412535328311816 2.0388833727139895e-15
  outer loop
    vertex 14.916159128428696 -26.6401724959876 6.0
    vertex 23.356620791683547 -32.06452783624679 3.9999999999999996
    vertex 14.916159128428744 -26.640172495987635 3.9999999999999996
  endloop
endfacet
facet normal 0.5406408174555971 0.8412535328311816 2.0388833727139895e-15
  outer loop
    vertex 23.356620791683547 -32.06452783624679 3.9999999999999996
    vertex 14.916159128428696 -26.6401724959876 6.0
    vertex 23.3566207916835 -32.06452783624677 6.0
  endloop
endfacet
facet normal 0.7557495743542577 -0.6548607339452859 -3.479737784067305e-16
  outer loop
    vertex 14.916159128428696 26.6401724959876 3.9999999999999996
    vertex 8.345812967700892 19.057588815309863 6.0
    vertex 8.345812967700864 19.05758881530981 3.9999999999999996
  endloop
endfacet
facet normal 0.7557495743542577 -0.6548607339452859 -3.479737784067305e-16
  outer loop
    vertex 8.345812967700892 19.057588815309863 6.0
    vertex 14.916159128428696 26.6401724959876 3.9999999999999996
    vertex 14.916159128428744 26.640172495987635 6.0
  endloop
endfacet
facet normal 0.7557495743542577 0.6548607339452859 5.594276343033032e-16
  outer loop
    vertex 8.345812967700892 -19.057588815309863 3.9999999999999996
    vertex 14.916159128428696 -26.6401724959876 6.0
    vertex 14.916159128428744 -26.640172495987635 3.9999999999999996
  endloop
endfacet
facet normal 0.7557495743542577 0.6548607339452859 5.594276343033032e-16
  outer loop
    vertex 14.916159128428696 -26.6401724959876 6.0
    vertex 8.345812967700892 -19.057588815309863 3.9999999999999996
    vertex 8.345812967700864 -19.05758881530981 6.0
  endloop
endfacet
facet normal -0.9898214418809328 -0.14231483827328442 3.4034081287881264e-15
  outer loop
    vertex 71.82212731991105 9.931072628660372 6.0
    vertex 73.24999999999999 4.3168799669944195e-15 3.9999999999999996
    vertex 73.24999999999999 -1.9971024614209124e-14 6.0
  endloop
endfacet
facet normal -0.9898214418809328 -0.14231483827328442 3.4034081287881264e-15
  outer loop
    vertex 73.24999999999999 4.3168799669944195e-15 3.9999999999999996
    vertex 71.82212731991105 9.931072628660372 6.0
    vertex 71.82212731991102 9.931072628660408 3.9999999999999996
  endloop
endfacet
facet normal -0.9096319953545186 -0.4154150130018862 2.9851033872695443e-15
  outer loop
    vertex 67.65418703229915 19.057588815309785 6.0
    vertex 71.82212731991102 9.931072628660408 3.9999999999999996
    vertex 71.82212731991105 9.931072628660372 6.0
  endloop
endfacet
facet normal -0.9096319953545186 -0.4154150130018862 2.9851033872695443e-15
  outer loop
    vertex 71.82212731991102 9.931072628660408 3.9999999999999996
    vertex 67.65418703229915 19.057588815309785 6.0
    vertex 67.65418703229912 19.05758881530982 3.9999999999999996
  endloop
endfacet
facet normal 0.2817325568414294 0.9594929736144977 6.216494624255778e-16
  outer loop
    vertex 23.3566207916835 -32.06452783624677 6.0
    vertex 32.983401950866735 -34.89120582630288 3.9999999999999996
    vertex 23.356620791683547 -32.06452783624679 3.9999999999999996
  endloop
endfacet
facet normal 0.2817325568414294 0.9594929736144977 6.216494624255778e-16
  outer loop
    vertex 32.983401950866735 -34.89120582630288 3.9999999999999996
    vertex 23.3566207916835 -32.06452783624677 6.0
    vertex 32.9834019508667 -34.89120582630288 6.0
  endloop
endfacet
facet normal 0.2817325568414294 -0.9594929736144977 -6.216494624255778e-16
  outer loop
    vertex 32.983401950866735 34.89120582630288 6.0
    vertex 23.3566207916835 32.06452783624677 3.9999999999999996
    vertex 32.9834019508667 34.89120582630288 3.9999999999999996
  endloop
endfacet
facet normal 0.2817325568414294 -0.9594929736144977 -6.216494624255778e-16
  outer loop
    vertex 23.3566207916835 32.06452783624677 3.9999999999999996
    vertex 32.983401950866735 34.89120582630288 6.0
    vertex 23.356620791683547 32.06452783624679 6.0
  endloop
endfacet
facet normal 0.9898214418809328 -0.14231483827328542 -1.978861082369702e-15
  outer loop
    vertex 4.177872680088966 9.931072628660395 3.9999999999999996
    vertex 2.7500000000000004 0.0 6.0
    vertex 2.7500000000000004 0.0 3.9999999999999996
  endloop
endfacet
facet normal 0.9898214418809328 -0.14231483827328542 -1.978861082369702e-15
  outer loop
    vertex 2.7500000000000004 0.0 6.0
    vertex 4.177872680088966 9.931072628660395 3.9999999999999996
    vertex 4.177872680088983 9.931072628660457 6.0
  endloop
endfacet
facet normal 0.909631995354518 -0.4154150130018872 1.4316533699167482e-15
  outer loop
    vertex 8.345812967700864 19.05758881530981 3.9999999999999996
    vertex 4.177872680088983 9.931072628660457 6.0
    vertex 4.177872680088966 9.931072628660395 3.9999999999999996
  endloop
endfacet
facet normal 0.909631995354518 -0.4154150130018872 1.4316533699167482e-15
  outer loop
    vertex 4.177872680088983 9.931072628660457 6.0
    vertex 8.345812967700864 19.05758881530981 3.9999999999999996
    vertex 8.345812967700892 19.057588815309863 6.0
  endloop
endfacet
facet normal -0.2817325568414302 -0.9594929736144973 -4.0085937596790046e-16
  outer loop
    vertex 52.64337920831652 32.06452783624676 6.0
    vertex 43.0165980491333 34.89120582630288 3.9999999999999996
    vertex 52.643379208316496 32.06452783624677 3.9999999999999996
  endloop
endfacet
facet normal -0.2817325568414302 -0.9594929736144973 -4.0085937596790046e-16
  outer loop
    vertex 43.0165980491333 34.89120582630288 3.9999999999999996
    vertex 52.64337920831652 32.06452783624676 6.0
    vertex 43.01659804913333 34.89120582630287 6.0
  endloop
endfacet
facet normal 0.5406408174555971 -0.8412535328311816 -2.0388833727139895e-15
  outer loop
    vertex 23.356620791683547 32.06452783624679 6.0
    vertex 14.916159128428696 26.6401724959876 3.9999999999999996
    vertex 23.3566207916835 32.06452783624677 3.9999999999999996
  endloop
endfacet
facet normal 0.5406408174555971 -0.8412535328311816 -2.0388833727139895e-15
  outer loop
    vertex 14.916159128428696 26.6401724959876 3.9999999999999996
    vertex 23.356620791683547 32.06452783624679 6.0
    vertex 14.916159128428744 26.640172495987635 6.0
  endloop
endfacet
facet normal -0.2817325568414302 0.9594929736144973 4.0085937596790086e-16
  outer loop
    vertex 43.0165980491333 -34.89120582630288 6.0
    vertex 52.64337920831652 -32.06452783624676 3.9999999999999996
    vertex 43.01659804913333 -34.89120582630287 3.9999999999999996
  endloop
endfacet
facet normal -0.2817325568414302 0.9594929736144973 4.0085937596790086e-16
  outer loop
    vertex 52.64337920831652 -32.06452783624676 3.9999999999999996
    vertex 43.0165980491333 -34.89120582630288 6.0
    vertex 52.643379208316496 -32.06452783624677 6.0
  endloop
endfacet
facet normal 0.909631995354518 0.4154150130018872 -1.4316533699167482e-15
  outer loop
    vertex 4.177872680088983 -9.931072628660457 3.9999999999999996
    vertex 8.345812967700864 -19.05758881530981 6.0
    vertex 8.345812967700892 -19.057588815309863 3.9999999999999996
  endloop
endfacet
facet normal 0.909631995354518 0.4154150130018872 -1.4316533699167482e-15
  outer loop
    vertex 8.345812967700864 -19.05758881530981 6.0
    vertex 4.177872680088983 -9.931072628660457 3.9999999999999996
    vertex 4.177872680088966 -9.931072628660395 6.0
  endloop
endfacet
facet normal -0.5406408174555981 0.8412535328311809 3.21311213238462e-15
  outer loop
    vertex 52.643379208316496 -32.06452783624677 6.0
    vertex 61.08384087157132 -26.640172495987574 3.9999999999999996
    vertex 52.64337920831652 -32.06452783624676 3.9999999999999996
  endloop
endfacet
facet normal -0.5406408174555981 0.8412535328311809 3.21311213238462e-15
  outer loop
    vertex 61.08384087157132 -26.640172495987574 3.9999999999999996
    vertex 52.643379208316496 -32.06452783624677 6.0
    vertex 61.0838408715713 -26.640172495987606 6.0
  endloop
endfacet
facet normal -5.621272533555069e-16 -1.0 9.43677476720781e-30
  outer loop
    vertex 43.01659804913333 34.89120582630287 6.0
    vertex 32.9834019508667 34.89120582630288 3.9999999999999996
    vertex 43.0165980491333 34.89120582630288 3.9999999999999996
  endloop
endfacet
facet normal -5.621272533555069e-16 -1.0 9.43677476720781e-30
  outer loop
    vertex 32.9834019508667 34.89120582630288 3.9999999999999996
    vertex 43.01659804913333 34.89120582630287 6.0
    vertex 32.983401950866735 34.89120582630288 6.0
  endloop
endfacet
facet normal 0.9898214418809328 0.14231483827328542 1.978861082369702e-15
  outer loop
    vertex 2.7500000000000004 0.0 3.9999999999999996
    vertex 4.177872680088966 -9.931072628660395 6.0
    vertex 4.177872680088983 -9.931072628660457 3.9999999999999996
  endloop
endfacet
facet normal 0.9898214418809328 0.14231483827328542 1.978861082369702e-15
  outer loop
    vertex 4.177872680088966 -9.931072628660395 6.0
    vertex 2.7500000000000004 0.0 3.9999999999999996
    vertex 2.7500000000000004 0.0 6.0
  endloop
endfacet
facet normal -0.0 -0.0 -1.0
  outer loop
    vertex 4.177872680088983 9.931072628660457 -2.0000000000000004
    vertex 4.177872680088966 -9.931072628660395 -2.0000000000000004
    vertex 2.7500000000000004 0.0 -2.0000000000000004
  endloop
endfacet
facet normal -0.0 -0.0 -1.0
  outer loop
    vertex 4.177872680088966 -9.931072628660395 -2.0000000000000004
    vertex 4.177872680088983 9.931072628660457 -2.0000000000000004
    vertex 8.345812967700864 -19.05758881530981 -2.0000000000000004
  endloop
endfacet
facet normal -0.0 -0.0 -1.0
  outer loop
    vertex 8.345812967700864 -19.05758881530981 -2.0000000000000004
    vertex 4.177872680088983 9.931072628660457 -2.0000000000000004
    vertex 8.345812967700892 19.057588815309863 -2.0000000000000004
  endloop
endfacet
facet normal -0.0 -0.0 -1.0
  outer loop
    vertex 8.345812967700864 -19.05758881530981 -2.0000000000000004
    vertex 8.345812967700892 19.057588815309863 -2.0000000000000004
    vertex 14.916159128428696 -26.6401724959876 -2.0000000000000004
  endloop
endfacet
facet normal -0.0 -0.0 -1.0
  outer loop
    vertex 14.916159128428696 -26.6401724959876 -2.0000000000000004
    vertex 8.345812967700892 19.057588815309863 -2.0000000000000004
    vertex 14.916159128428744 26.640172495987635 -2.0000000000000004
  endloop
endfacet
facet normal -0.0 -0.0 -1.0
  outer loop
    vertex 14.916159128428696 -26.6401724959876 -2.0000000000000004
    vertex 14.916159128428744 26.640172495987635 -2.0000000000000004
    vertex 23.3566207916835 -32.06452783624677 -2.0000000000000004
  endloop
endfacet
facet normal -0.0 -0.0 -1.0
  outer loop
    vertex 23.3566207916835 -32.06452783624677 -2.0000000000000004
    vertex 14.916159128428744 26.640172495987635 -2.0000000000000004
    vertex 23.356620791683547 32.06452783624679 -2.0000000000000004
  endloop
endfacet
facet normal -0.0 -0.0 -1.0
  outer loop
    vertex 23.3566207916835 -32.06452783624677 -2.0000000000000004
    vertex 23.356620791683547 32.06452783624679 -2.0000000000000004
    vertex 32.9834019508667 -34.89120582630288 -2.0000000000000004
  endloop
endfacet
facet normal -0.0 -0.0 -1.0
  outer loop
    vertex 32.9834019508667 -34.89120582630288 -2.0000000000000004
    vertex 23.356620791683547 32.06452783624679 -2.0000000000000004
    vertex 32.983401950866735 34.89120582630288 -2.0000000000000004
  endloop
endfacet
facet normal -0.0 -0.0 -1.0
  outer loop
    vertex 32.9834019508667 -34.89120582630288 -2.0000000000000004
    vertex 32.983401950866735 34.89120582630288 -2.0000000000000004
    vertex 43.0165980491333 -34.89120582630288 -2.0000000000000004
  endloop
endfacet
facet normal -0.0 -0.0 -1.0
  outer loop
    vertex 43.0165980491333 -34.89120582630288 -2.0000000000000004
    vertex 32.983401950866735 34.89120582630288 -2.0000000000000004
    vertex 43.01659804913333 34.89120582630287 -2.0000000000000004
  endloop
endfacet
facet normal -0.0 -0.0 -1.0
  outer loop
    vertex 43.0165980491333 -34.89120582630288 -2.0000000000000004
    vertex 43.01659804913333 34.89120582630287 -2.0000000000000004
    vertex 52.643379208316496 -32.06452783624677 -2.0000000000000004
  endloop
endfacet
facet normal -0.0 -0.0 -1.0
  outer loop
    vertex 52.643379208316496 -32.06452783624677 -2.0000000000000004
    vertex 43.01659804913333 34.89120582630287 -2.0000000000000004
    vertex 52.64337920831652 32.06452783624676 -2.0000000000000004
  endloop
endfacet
facet normal -0.0 -0.0 -1.0
  outer loop
    vertex 52.643379208316496 -32.06452783624677 -2.0000000000000004
    vertex 52.64337920831652 32.06452783624676 -2.0000000000000004
    vertex 61.0838408715713 -26.640172495987606 -2.0000000000000004
  endloop
endfacet
facet normal -0.0 -0.0 -1.0
  outer loop
    vertex 61.0838408715713 -26.640172495987606 -2.0000000000000004
    vertex 52.64337920831652 32.06452783624676 -2.0000000000000004
    vertex 61.08384087157132 26.640172495987574 -2.0000000000000004
  endloop
endfacet
facet normal -0.0 -0.0 -1.0
  outer loop
    vertex 61.0838408715713 -26.640172495987606 -2.0000000000000004
    vertex 61.08384087157132 26.640172495987574 -2.0000000000000004
    vertex 67.65418703229912 -19.05758881530982 -2.0000000000000004
  endloop
endfacet
facet normal -0.0 -0.0 -1.0
  outer loop
    vertex 67.65418703229912 -19.05758881530982 -2.0000000000000004
    vertex 61.08384087157132 26.640172495987574 -2.0000000000000004
    vertex 67.65418703229915 19.057588815309785 -2.0000000000000004
  endloop
endfacet
facet normal -0.0 -0.0 -1.0
  outer loop
    vertex 67.65418703229912 -19.05758881530982 -2.0000000000000004
    vertex 67.65418703229915 19.057588815309785 -2.0000000000000004
    vertex 71.82212731991102 -9.931072628660408 -2.0000000000000004
  endloop
endfacet
facet normal -0.0 -0.0 -1.0
  outer loop
    vertex 71.82212731991102 -9.931072628660408 -2.0000000000000004
    vertex 67.65418703229915 19.057588815309785 -2.0000000000000004
    vertex 71.82212731991105 9.931072628660372 -2.0000000000000004
  endloop
endfacet
facet normal -0.0 -0.0 -1.0
  outer loop
    vertex 71.82212731991102 -9.931072628660408 -2.0000000000000004
    vertex 71.82212731991105 9.931072628660372 -2.0000000000000004
    vertex 73.24999999999999 -4.3168799669944195e-15 -2.0000000000000004
  endloop
endfacet
facet normal -0.0 -0.0 1.0
  outer loop
    vertex 4.177872680088983 -9.931072628660457 3.9999999999999996
    vertex 4.177872680088966 9.931072628660395 3.9999999999999996
    vertex 2.7500000000000004 0.0 3.9999999999999996
  endloop
endfacet
facet normal -0.0 -0.0 1.0
  outer loop
    vertex 4.177872680088966 9.931072628660395 3.9999999999999996
    vertex 4.177872680088983 -9.931072628660457 3.9999999999999996
    vertex 8.345812967700864 19.05758881530981 3.9999999999999996
  endloop
endfacet
facet normal -0.0 -0.0 1.0
  outer loop
    vertex 8.345812967700864 19.05758881530981 3.9999999999999996
    vertex 4.177872680088983 -9.931072628660457 3.9999999999999996
    vertex 8.345812967700892 -19.057588815309863 3.9999999999999996
  endloop
endfacet
facet normal -0.0 -0.0 1.0
  outer loop
    vertex 8.345812967700864 19.05758881530981 3.9999999999999996
    vertex 8.345812967700892 -19.057588815309863 3.9999999999999996
    vertex 14.916159128428696 26.6401724959876 3.9999999999999996
  endloop
endfacet
facet normal -0.0 -0.0 1.0
  outer loop
    vertex 14.916159128428696 26.6401724959876 3.9999999999999996
    vertex 8.345812967700892 -19.057588815309863 3.9999999999999996
    vertex 14.916159128428744 -26.640172495987635 3.9999999999999996
  endloop
endfacet
facet normal -0.0 -0.0 1.0
  outer loop
    vertex 14.916159128428696 26.6401724959876 3.9999999999999996
    vertex 14.916159128428744 -26.640172495987635 3.9999999999999996
    vertex 23.3566207916835 32.06452783624677 3.9999999999999996
  endloop
endfacet
facet normal -0.0 -0.0 1.0
  outer loop
    vertex 23.3566207916835 32.06452783624677 3.9999999999999996
    vertex 14.916159128428744 -26.640172495987635 3.9999999999999996
    vertex 23.356620791683547 -32.06452783624679 3.9999999999999996
  endloop
endfacet
facet normal -0.0 -0.0 1.0
  outer loop
    vertex 23.3566207916835 32.06452783624677 3.9999999999999996
    vertex 23.356620791683547 -32.06452783624679 3.9999999999999996
    vertex 32.9834019508667 34.89120582630288 3.9999999999999996
  endloop
endfacet
facet normal -0.0 -0.0 1.0
  outer loop
    vertex 32.9834019508667 34.89120582630288 3.9999999999999996
    vertex 23.356620791683547 -32.06452783624679 3.9999999999999996
    vertex 32.983401950866735 -34.89120582630288 3.9999999999999996
  endloop
endfacet
facet normal -0.0 -0.0 1.0
  outer loop
    vertex 32.9834019508667 34.89120582630288 3.9999999999999996
    vertex 32.983401950866735 -34.89120582630288 3.9999999999999996
    vertex 43.0165980491333 34.89120582630288 3.9999999999999996
  endloop
endfacet
facet normal -0.0 -0.0 1.0
  outer loop
    vertex 43.0165980491333 34.89120582630288 3.9999999999999996
    vertex 32.983401950866735 -34.89120582630288 3.9999999999999996
    vertex 43.01659804913333 -34.89120582630287 3.9999999999999996
  endloop
endfacet
facet normal -0.0 -0.0 1.0
  outer loop
    vertex 43.0165980491333 34.89120582630288 3.9999999999999996
    vertex 43.01659804913333 -34.89120582630287 3.9999999999999996
    vertex 52.643379208316496 32.06452783624677 3.9999999999999996
  endloop
endfacet
facet normal -0.0 -0.0 1.0
  outer loop
    vertex 52.643379208316496 32.06452783624677 3.9999999999999996
    vertex 43.01659804913333 -34.89120582630287 3.9999999999999996
    vertex 52.64337920831652 -32.06452783624676 3.9999999999999996
  endloop
endfacet
facet normal -0.0 -0.0 1.0
  outer loop
    vertex 52.643379208316496 32.06452783624677 3.9999999999999996
    vertex 52.64337920831652 -32.06452783624676 3.9999999999999996
    vertex 61.0838408715713 26.640172495987606 3.9999999999999996
  endloop
endfacet
facet normal -0.0 -0.0 1.0
  outer loop
    vertex 61.0838408715713 26.640172495987606 3.9999999999999996
    vertex 52.64337920831652 -32.06452783624676 3.9999999999999996
    vertex 61.08384087157132 -26.640172495987574 3.9999999999999996
  endloop
endfacet
facet normal -0.0 -0.0 1.0
  outer loop
    vertex 61.0838408715713 26.640172495987606 3.9999999999999996
    vertex 61.08384087157132 -26.640172495987574 3.9999999999999996
    vertex 67.65418703229912 19.05758881530982 3.9999999999999996
  endloop
endfacet
facet normal -0.0 -0.0 1.0
  outer loop
    vertex 67.65418703229912 19.05758881530982 3.9999999999999996
    vertex 61.08384087157132 -26.640172495987574 3.9999999999999996
    vertex 67.65418703229915 -19.057588815309785 3.9999999999999996
  endloop
endfacet
facet normal -0.0 -0.0 1.0
  outer loop
    vertex 67.65418703229912 19.05758881530982 3.9999999999999996
    vertex 67.65418703229915 -19.057588815309785 3.9999999999999996
    vertex 71.82212731991102 9.931072628660408 3.9999999999999996
  endloop
endfacet
facet normal -0.0 -0.0 1.0
  outer loop
    vertex 71.82212731991102 9.931072628660408 3.9999999999999996
    vertex 67.65418703229915 -19.057588815309785 3.9999999999999996
    vertex 71.82212731991105 -9.931072628660372 3.9999999999999996
  endloop
endfacet
facet normal -0.0 -0.0 1.0
  outer loop
    vertex 71.82212731991102 9.931072628660408 3.9999999999999996
    vertex 71.82212731991105 -9.931072628660372 3.9999999999999996
    vertex 73.24999999999999 4.3168799669944195e-15 3.9999999999999996
  endloop
endfacet
endsolid Lid For ScrantonCups
